<svg xmlns="http://www.w3.org/2000/svg" viewBox="0 0 27.9 20.28">
  <path d="M27.53,2.07c-.15.28-.5.87-.59,1-.36.48-.72,1-1.06,1.45a32.38,32.38,0,0,1-7.47,7.93A23.19,23.19,0,0,1,6.22,17.09a2.71,2.71,0,0,0-.62.19l1.56,1.11c.5.35.85.77.51,1.4A1.08,1.08,0,0,1,6.06,20C4.22,18.88,2.39,17.69.62,16.43c-.89-.64-.8-1.42.12-2.11C2.48,13,4.24,11.74,6,10.46c.7-.51,1.37-.5,1.76,0s.3,1.11-.38,1.73S5.91,13.42,5.17,14c-.26.21-.51.44-1,.84a8.63,8.63,0,0,0,3.33,0,23.91,23.91,0,0,0,13.66-8C22.6,5.29,23.81,3.45,25.1,1.7c.19-.27.54-.83.75-1.19a1,1,0,0,1,.51-.44A1.18,1.18,0,0,1,27.55.3C28.28,1,27.64,1.69,27.53,2.07Z" style="fill: #21805c"/>
</svg>
